<?xml version="1.0" encoding="UTF-8" standalone="no"?><!DOCTYPE svg PUBLIC "-//W3C//DTD SVG 1.1//EN" "http://www.w3.org/Graphics/SVG/1.1/DTD/svg11.dtd"><svg width="100%" height="100%" viewBox="0 0 8334 8334" version="1.1" xmlns="http://www.w3.org/2000/svg" xmlns:xlink="http://www.w3.org/1999/xlink" xml:space="preserve" xmlns:serif="http://www.serif.com/" style="fill-rule:evenodd;clip-rule:evenodd;stroke-linecap:round;stroke-linejoin:round;stroke-miterlimit:2;"><g><g><path d="M417.053,2626.352l0,-73.666l-44.2,14.733l-29.467,14.733l0,-29.467l324.132,-279.932l0,-29.467l-117.866,-14.733l0,-14.733l-73.666,-14.733l-220.999,-324.132l338.865,-191.532l206.266,0l44.2,44.2l58.933,0l-58.933,-147.333c736.663,88.4 721.929,441.998 191.532,987.128l14.733,14.733c147.333,-147.333 294.665,-294.665 471.464,-441.998" style="fill:#b20000;stroke:#ebbe99;stroke-width:14.73px;"/></g><g><path d="M417.053,2639.182l0,-73.666l-44.2,14.733l-29.467,14.733l0,-29.467l324.132,-279.932l0,-29.467l-117.866,-14.733l0,-14.733l-73.666,-14.733l-220.999,-324.132l338.865,-191.532l206.266,0l44.2,44.2l58.933,0l-58.933,-147.333c736.663,88.4 721.929,441.998 191.532,987.128l14.733,14.733c147.333,-147.333 294.665,-294.665 471.464,-441.998" style="fill:#b20000;stroke:#ebbe99;stroke-width:14.73px;"/></g><g><path d="M1522.047,2140.154l176.799,14.733l147.333,58.933l147.333,162.066l0,73.666l-14.733,73.666l-29.467,44.2l0,58.933l44.2,44.2l0,132.599l-44.2,29.467l-58.933,29.467l-29.467,73.666l-191.532,294.665l-220.999,-147.333c-58.933,-73.666 -103.133,-162.066 -132.599,-265.199l-14.733,-29.467l-14.733,191.532l-29.467,58.933l-14.733,58.933l-29.467,44.2l-191.532,-14.733l-73.666,103.133l-58.933,-88.4l-235.732,0l-29.467,14.733l-88.4,0l-29.467,14.733l-117.866,29.467l0,-191.532l14.733,-14.733l0,-103.133l-14.733,-103.133l-29.467,0l-14.733,-73.666l29.467,-14.733l44.2,-73.666" style="fill:#b20000;stroke:#ebbe99;stroke-width:14.73px;"/></g><g><path d="M1595.714,2022.288c88.4,-441.998 -220.999,-677.73 -751.396,-825.062c633.53,-58.933 1252.327,-73.666 1944.79,0c368.331,44.2 618.797,854.529 972.395,1723.791c294.665,780.863 766.129,1605.925 957.662,2151.055l-780.863,-14.733c-176.799,14.733 -500.931,-117.866 -648.263,-250.465c-397.798,-913.462 -928.195,-2548.853 -1679.591,-3211.85" style="fill:#b20000;stroke:#ebbe99;stroke-width:14.73px;"/></g><g><path d="M7931.013,4379.609c-368.331,-279.932 -883.995,-397.798 -1311.26,-176.799c-957.662,486.197 -2003.723,1664.858 -3226.583,869.262l1046.061,2106.855c147.333,29.467 294.665,-29.467 397.798,-250.465c1001.861,-1488.059 1709.058,-2887.718 3093.984,-2548.853Z" style="fill:#b20000;stroke:#ebbe99;stroke-width:14.73px;"/></g><g><path d="M5662.092,4497.475c721.929,-1915.323 1812.19,-3197.116 633.53,-3285.516" style="fill:#b20000;stroke:#ebbe99;stroke-width:14.73px;"/></g><g><path d="M6295.622,1211.959l1782.724,0c-780.863,88.4 -1104.994,1532.259 -1694.324,2872.985l-721.929,412.531" style="fill:#b20000;stroke:#ebbe99;stroke-width:14.73px;"/></g></g></svg>